<?xml version="1.0" encoding="UTF-8" standalone="no"?>
<!-- Generator: Adobe Illustrator 17.0.0, SVG Export Plug-In . SVG Version: 6.00 Build 0)  -->

<svg
   version="1.1"
   id="图层_1"
   x="0px"
   y="0px"
   width="389.85941"
   height="132.05112"
   viewBox="0 0 389.85941 132.05112"
   enable-background="new 0 0 800 800"
   xml:space="preserve"
   sodipodi:docname="upyun.svg"
   inkscape:version="1.1.1 (3bf5ae0d25, 2021-09-20)"
   xmlns:inkscape="http://www.inkscape.org/namespaces/inkscape"
   xmlns:sodipodi="http://sodipodi.sourceforge.net/DTD/sodipodi-0.dtd"
   xmlns="http://www.w3.org/2000/svg"
   xmlns:svg="http://www.w3.org/2000/svg"><defs
   id="defs53" /><sodipodi:namedview
   id="namedview51"
   pagecolor="#ffffff"
   bordercolor="#666666"
   borderopacity="1.0"
   inkscape:pageshadow="2"
   inkscape:pageopacity="0.0"
   inkscape:pagecheckerboard="0"
   showgrid="false"
   fit-margin-top="0"
   fit-margin-left="0"
   fit-margin-right="0"
   fit-margin-bottom="0"
   inkscape:zoom="2.25"
   inkscape:cx="42.222222"
   inkscape:cy="132"
   inkscape:window-width="3840"
   inkscape:window-height="2050"
   inkscape:window-x="-12"
   inkscape:window-y="-12"
   inkscape:window-maximized="1"
   inkscape:current-layer="图层_1" />
<g
   id="g48"
   transform="translate(-176.9606,-267.95017)">
	<path
   fill="#00a0ff"
   d="m 282.639,281.223 v 0 0 0 0 c -2.473,-1.861 -5.034,-3.52 -7.664,-4.983 -1.904,-1.059 -4.295,-0.564 -5.604,1.177 l -16.492,21.912 -1.176,1.563 c -1.786,2.373 -4.638,3.665 -7.605,3.529 -1.082,-0.049 -2.164,-0.039 -3.242,0.029 -8.289,0.525 -16.308,4.525 -21.694,11.681 -4.33,5.753 -6.229,12.576 -5.879,19.245 0.063,1.201 0.757,2.298 1.851,2.796 2.27,1.032 4.017,3.137 4.454,5.83 0.618,3.809 -1.722,7.551 -5.418,8.659 -4.357,1.306 -8.832,-1.363 -9.814,-5.724 -0.532,-2.362 0.079,-4.711 1.463,-6.48 0.768,-0.981 1.154,-2.203 1.044,-3.444 -0.758,-8.552 1.52,-17.402 7.09,-24.802 7.026,-9.334 17.717,-14.274 28.562,-14.337 2.09,-0.012 4.052,-1.011 5.309,-2.681 l 15.188,-20.178 c 1.189,-1.579 0.421,-3.848 -1.476,-4.405 -25.43,-7.46 -53.905,0.934 -70.96,23.146 -22.099,28.781 -16.729,70.279 11.987,92.462 2.687,2.076 5.482,3.909 8.36,5.508 1.893,1.052 4.274,0.537 5.577,-1.193 l 16.492,-21.911 1.176,-1.563 c 1.786,-2.373 4.638,-3.665 7.605,-3.529 1.082,0.049 2.164,0.039 3.242,-0.029 8.289,-0.525 16.308,-4.525 21.694,-11.681 4.33,-5.753 6.229,-12.576 5.879,-19.245 -0.063,-1.201 -0.757,-2.298 -1.851,-2.796 -2.27,-1.032 -4.017,-3.137 -4.454,-5.83 -0.618,-3.809 1.722,-7.551 5.418,-8.658 4.357,-1.306 8.832,1.363 9.814,5.724 0.532,2.362 -0.079,4.711 -1.463,6.48 -0.768,0.981 -1.154,2.203 -1.044,3.444 0.758,8.552 -1.52,17.402 -7.09,24.802 -7.026,9.334 -17.717,14.274 -28.562,14.337 -2.09,0.012 -4.052,1.011 -5.309,2.681 l -15.187,20.177 c -1.18,1.568 -0.439,3.842 1.444,4.396 25.633,7.534 54.368,-1.045 71.384,-23.652 21.926,-29.135 16.085,-70.529 -13.049,-92.457 z"
   id="path32" />
	<g
   id="g46">
		<path
   fill="#00a0ff"
   d="m 391.613,299.257 -10e-4,-1.567 c -0.001,-1.133 -0.92,-2.052 -2.053,-2.052 h -51.424 c -1.134,0 -2.053,0.919 -2.053,2.053 v 3.137 c 0,1.134 0.919,2.053 2.053,2.053 h 43.629 c 1.255,0 2.221,1.107 2.034,2.348 -1.224,8.113 -5.061,23.285 -17.051,37.854 -0.847,1.029 -2.419,1.011 -3.241,-0.039 -10.032,-12.828 -13.119,-25.98 -13.962,-30.826 -0.184,-1.061 -1.166,-1.792 -2.237,-1.678 l -1.643,0.174 -1.449,0.151 c -1.188,0.124 -2.026,1.228 -1.808,2.403 1.028,5.558 4.773,20.841 16.549,35.388 0.683,0.843 0.625,2.076 -0.175,2.81 -14.336,13.149 -27.229,16.031 -31.841,16.657 -1.027,0.14 -1.794,1.009 -1.789,2.046 l 0.015,3.169 c 0.006,1.22 1.065,2.174 2.276,2.032 5.484,-0.645 20.116,-3.743 36.284,-18.613 0.799,-0.734 2.014,-0.734 2.81,0.003 7.813,7.235 17.799,14.211 31.266,18.495 1.091,0.347 2.259,-0.287 2.582,-1.385 l 0.887,-3.007 c 0.318,-1.078 -0.297,-2.198 -1.367,-2.539 -12.252,-3.908 -21.285,-10.2 -28.378,-16.651 -0.818,-0.744 -0.859,-2.006 -0.141,-2.846 19.984,-23.396 20.23,-48.432 20.228,-49.57 z"
   id="path34" />
		<path
   fill="#00a0ff"
   d="m 427.31,292.355 h -3.137 c -1.134,0 -2.053,0.919 -2.053,2.053 v 10.999 c 0,1.134 -0.919,2.053 -2.053,2.053 h -7.379 c -1.134,0 -2.053,0.919 -2.053,2.053 v 3.137 c 0,1.134 0.919,2.053 2.053,2.053 h 7.379 c 1.134,0 2.053,0.919 2.053,2.053 v 15.933 c 0,1.134 -0.919,2.053 -2.053,2.053 h -7.379 c -1.134,0 -2.053,0.919 -2.053,2.053 v 3.137 c 0,1.134 0.919,2.053 2.053,2.053 h 7.379 c 1.134,0 2.053,0.919 2.053,2.053 v 15.065 c 0,3.27 -1.307,8.606 -9.648,9.31 -1.078,0.091 -1.921,0.965 -1.921,2.047 v 3.125 c 0,1.196 1.017,2.157 2.209,2.055 8.099,-0.693 16.603,-5.292 16.603,-16.537 v -15.065 c 0,-1.134 0.919,-2.053 2.053,-2.053 h 6.557 c 1.134,0 2.053,-0.919 2.053,-2.053 v -3.137 c 0,-1.134 -0.919,-2.053 -2.053,-2.053 h -6.557 c -1.134,0 -2.053,-0.919 -2.053,-2.053 v -15.933 c 0,-1.134 0.919,-2.053 2.053,-2.053 h 6.557 c 1.134,0 2.053,-0.919 2.053,-2.053 v -3.137 c 0,-1.134 -0.919,-2.053 -2.053,-2.053 h -6.557 c -1.134,0 -2.053,-0.919 -2.053,-2.053 v -10.999 c 0,-1.134 -0.919,-2.053 -2.053,-2.053 z"
   id="path36" />
		<path
   fill="#00a0ff"
   d="m 443.648,373.092 c 0,1.134 0.919,2.053 2.053,2.053 h 23.138 c 10.239,0 18.569,-7.94 18.569,-17.7 v -48.63 c 0,-1.134 -0.919,-2.053 -2.053,-2.053 h -39.654 c -1.134,0 -2.053,0.919 -2.053,2.053 z m 25.191,-5.19 h -15.895 c -1.134,0 -2.053,-0.919 -2.053,-2.053 v -21.81 c 0,-1.134 0.919,-2.053 2.053,-2.053 h 25.167 c 1.134,0 2.053,0.919 2.053,2.053 v 13.406 c 0.001,5.766 -5.08,10.457 -11.325,10.457 z m 11.326,-51.843 v 16.631 c 0,1.134 -0.919,2.053 -2.053,2.053 h -25.167 c -1.134,0 -2.053,-0.919 -2.053,-2.053 v -16.631 c 0,-1.134 0.919,-2.053 2.053,-2.053 h 25.167 c 1.134,0 2.053,0.919 2.053,2.053 z"
   id="path38" />
		<path
   fill="#00a0ff"
   d="m 475.171,292.301 h -20.44 c -1.134,0 -2.053,0.919 -2.053,2.053 v 3.137 c 0,1.134 0.919,2.053 2.053,2.053 h 20.44 c 1.134,0 2.053,-0.919 2.053,-2.053 v -3.137 c 0,-1.134 -0.919,-2.053 -2.053,-2.053 z"
   id="path40" />
		<path
   fill="#00a0ff"
   d="M 553.303,295.487 H 510.73 c -1.134,0 -2.053,0.919 -2.053,2.053 v 3.137 c 0,1.134 0.919,2.053 2.053,2.053 h 42.573 c 1.134,0 2.053,-0.919 2.053,-2.053 v -3.137 c 0,-1.134 -0.919,-2.053 -2.053,-2.053 z"
   id="path42" />
		<path
   fill="#00a0ff"
   d="m 535.11,331.8 h 29.657 c 1.134,0 2.053,-0.919 2.053,-2.053 v -3.137 c 0,-1.134 -0.919,-2.053 -2.053,-2.053 h -65.51 c -1.134,0 -2.053,0.919 -2.053,2.053 v 3.137 c 0,1.134 0.919,2.053 2.053,2.053 h 20.274 c 1.638,0 2.617,1.824 1.711,3.189 l -13.492,24.343 c -0.363,0.545 -0.632,1.08 -0.821,1.633 -1.129,3.299 -0.601,6.838 1.451,9.71 2.15,3.01 5.706,4.806 9.509,4.806 h 36.976 c 1.662,0 3.181,-0.829 4.061,-2.218 0.863,-1.359 0.969,-3.039 0.283,-4.495 l -8.586,-16.643 c -0.52,-1.008 -1.759,-1.403 -2.766,-0.883 l -2.788,1.439 c -1.008,0.52 -1.403,1.758 -0.883,2.766 l 5.055,9.796 c 0.705,1.367 -0.287,2.995 -1.825,2.995 h -29.528 c -1.492,0 -2.81,-0.647 -3.616,-1.775 -0.367,-0.512 -0.899,-1.53 -0.589,-2.798 0.052,-0.212 0.157,-0.413 0.278,-0.596 l 16.397,-28.72 c 1.058,-1.592 2.841,-2.549 4.752,-2.549 z"
   id="path44" />
	</g>
</g>
</svg>
